<svg width="48" height="42" viewBox="0 0 48 42" fill="none" xmlns="http://www.w3.org/2000/svg">
<path d="M13.1667 41.4589C10.2071 41.2317 7.39501 40.0751 5.13192 38.1544C2.86882 36.2337 1.27045 33.6471 0.565018 30.7639C-0.140411 27.8807 0.0831768 24.8483 1.20386 22.0997C2.32454 19.3511 4.285 17.0269 6.80533 15.4589C7.3416 11.2774 9.38322 7.43465 12.5481 4.64973C15.713 1.86482 19.7843 0.328613 24 0.328613C28.2157 0.328613 32.287 1.86482 35.4519 4.64973C38.6168 7.43465 40.6584 11.2774 41.1947 15.4589C43.715 17.0269 45.6754 19.3511 46.7961 22.0997C47.9168 24.8483 48.1404 27.8807 47.435 30.7639C46.7295 33.6471 45.1312 36.2337 42.8681 38.1544C40.605 40.0751 37.7929 41.2317 34.8333 41.4589V41.5001H13.1667V41.4589ZM26.1667 24.1667H32.6667L24 13.3334L15.3333 24.1667H21.8333V32.8334H26.1667V24.1667Z" fill="#30BFAB"/>
</svg>
