<svg width="151" height="162" viewBox="0 0 151 162" fill="none" xmlns="http://www.w3.org/2000/svg">
<circle cx="79.8871" cy="90.5397" r="70.81" fill="#F1F1F1"/>
<path d="M142.215 62.0091C139.436 72.0615 130.323 94.4641 113.934 98.6287C97.5454 102.793 89.762 98.3894 88.1908 96.2951" stroke="#CCCCCC" stroke-width="1.8018"/>
<mask id="path-3-inside-1_470_4020" fill="white">
<path fill-rule="evenodd" clip-rule="evenodd" d="M61.6015 40.1499L46.0294 56.8865V140.93H113.745V56.8865L98.5956 40.1499H61.6015ZM75.1964 68.2749C79.1084 68.2749 82.2796 65.1037 82.2796 61.1917C82.2796 57.2797 79.1084 54.1084 75.1964 54.1084C71.2844 54.1084 68.1131 57.2797 68.1131 61.1917C68.1131 65.1037 71.2844 68.2749 75.1964 68.2749Z"/>
</mask>
<path fill-rule="evenodd" clip-rule="evenodd" d="M61.6015 40.1499L46.0294 56.8865V140.93H113.745V56.8865L98.5956 40.1499H61.6015ZM75.1964 68.2749C79.1084 68.2749 82.2796 65.1037 82.2796 61.1917C82.2796 57.2797 79.1084 54.1084 75.1964 54.1084C71.2844 54.1084 68.1131 57.2797 68.1131 61.1917C68.1131 65.1037 71.2844 68.2749 75.1964 68.2749Z" fill="white"/>
<path d="M46.0294 56.8865L45.0182 55.9457L44.6483 56.3433V56.8865H46.0294ZM61.6015 40.1499V38.7688H61.0001L60.5904 39.2091L61.6015 40.1499ZM46.0294 140.93H44.6483V142.311H46.0294V140.93ZM113.745 140.93V142.311H115.126V140.93H113.745ZM113.745 56.8865H115.126V56.3542L114.769 55.9596L113.745 56.8865ZM98.5956 40.1499L99.6196 39.2231L99.2084 38.7688H98.5956V40.1499ZM47.0405 57.8272L62.6127 41.0907L60.5904 39.2091L45.0182 55.9457L47.0405 57.8272ZM47.4105 140.93V56.8865H44.6483V140.93H47.4105ZM113.745 139.548H46.0294V142.311H113.745V139.548ZM112.364 56.8865V140.93H115.126V56.8865H112.364ZM97.5717 41.0767L112.721 57.8133L114.769 55.9596L99.6196 39.2231L97.5717 41.0767ZM61.6015 41.531H98.5956V38.7688H61.6015V41.531ZM80.8985 61.1917C80.8985 64.3409 78.3456 66.8938 75.1964 66.8938V69.656C79.8711 69.656 83.6607 65.8664 83.6607 61.1917H80.8985ZM75.1964 55.4895C78.3456 55.4895 80.8985 58.0425 80.8985 61.1917H83.6607C83.6607 56.5169 79.8711 52.7273 75.1964 52.7273V55.4895ZM69.4942 61.1917C69.4942 58.0425 72.0472 55.4895 75.1964 55.4895V52.7273C70.5216 52.7273 66.732 56.5169 66.732 61.1917H69.4942ZM75.1964 66.8938C72.0472 66.8938 69.4942 64.3409 69.4942 61.1917H66.732C66.732 65.8664 70.5216 69.656 75.1964 69.656V66.8938Z" fill="#CCCCCC" mask="url(#path-3-inside-1_470_4020)"/>
<path d="M70.4551 90.5397C70.4551 91.4542 70.275 92.3597 69.925 93.2045C69.5751 94.0494 69.0622 94.817 68.4155 95.4636C67.7689 96.1103 67.0013 96.6232 66.1564 96.9731C65.3116 97.3231 64.4061 97.5032 63.4916 97.5032C62.5771 97.5032 61.6716 97.3231 60.8268 96.9731C59.9819 96.6232 59.2143 96.1103 58.5676 95.4636C57.921 94.817 57.4081 94.0494 57.0581 93.2045C56.7082 92.3597 56.5281 91.4541 56.5281 90.5397L58.0633 90.5397C58.0633 91.2525 58.2037 91.9584 58.4765 92.617C58.7493 93.2756 59.1491 93.874 59.6532 94.3781C60.1572 94.8822 60.7557 95.282 61.4143 95.5548C62.0729 95.8276 62.7787 95.968 63.4916 95.968C64.2045 95.968 64.9103 95.8276 65.5689 95.5548C66.2275 95.282 66.8259 94.8822 67.33 94.3781C67.8341 93.874 68.2339 93.2756 68.5067 92.617C68.7795 91.9584 68.9199 91.2525 68.9199 90.5397H70.4551Z" fill="#CCCCCC"/>
<path d="M82.1598 108.98C82.1598 108.066 81.9797 107.16 81.6298 106.315C81.2798 105.47 80.7669 104.703 80.1203 104.056C79.4736 103.41 78.706 102.897 77.8611 102.547C77.0163 102.197 76.1108 102.017 75.1963 102.017C74.2818 102.017 73.3763 102.197 72.5315 102.547C71.6866 102.897 70.919 103.41 70.2724 104.056C69.6257 104.703 69.1128 105.47 68.7629 106.315C68.4129 107.16 68.2328 108.066 68.2328 108.98L69.768 108.98C69.768 108.267 69.9084 107.561 70.1812 106.903C70.454 106.244 70.8538 105.646 71.3579 105.142C71.862 104.638 72.4604 104.238 73.119 103.965C73.7776 103.692 74.4834 103.552 75.1963 103.552C75.9092 103.552 76.615 103.692 77.2736 103.965C77.9322 104.238 78.5307 104.638 79.0347 105.142C79.5388 105.646 79.9386 106.244 80.2114 106.903C80.4842 107.561 80.6246 108.267 80.6246 108.98H82.1598Z" fill="#CCCCCC"/>
<path d="M93.8652 90.5397C93.8652 91.4542 93.6851 92.3597 93.3351 93.2045C92.9852 94.0494 92.4723 94.817 91.8256 95.4636C91.179 96.1103 90.4114 96.6232 89.5665 96.9731C88.7217 97.3231 87.8161 97.5032 86.9017 97.5032C85.9872 97.5032 85.0817 97.3231 84.2369 96.9731C83.392 96.6232 82.6244 96.1103 81.9777 95.4636C81.3311 94.817 80.8182 94.0494 80.4682 93.2045C80.1183 92.3597 79.9382 91.4541 79.9382 90.5397L81.4733 90.5397C81.4733 91.2525 81.6138 91.9584 81.8866 92.617C82.1594 93.2756 82.5592 93.874 83.0633 94.3781C83.5673 94.8822 84.1658 95.282 84.8244 95.5548C85.4829 95.8276 86.1888 95.968 86.9017 95.968C87.6145 95.968 88.3204 95.8276 88.979 95.5548C89.6376 95.282 90.236 94.8822 90.7401 94.3781C91.2442 93.874 91.644 93.2756 91.9168 92.617C92.1896 91.9584 92.33 91.2525 92.33 90.5397H93.8652Z" fill="#CCCCCC"/>
<rect x="46.8886" y="124.177" width="65.9978" height="16.5158" fill="#FAFAFA" stroke="#CCCCCC" stroke-width="1.3811"/>
<circle cx="73.4813" cy="20.3946" r="3.84524" fill="#C4C4C4"/>
<circle cx="122.632" cy="22.1209" r="1.72638" fill="#C4C4C4"/>
<circle cx="113.477" cy="49.2828" r="1.72638" fill="#C4C4C4"/>
<circle cx="138.531" cy="67.6831" r="2.24429" fill="#C4C4C4"/>
<circle cx="33.4279" cy="14.3051" r="2.24429" fill="#C4C4C4"/>
<path d="M101.714 4.30304L103.78 2.23733L105.274 3.73082L103.208 5.79653L105.543 8.13118L103.969 9.70478L101.634 7.37013L99.5629 9.44156L98.0694 7.94807L100.141 5.87664L97.9035 3.63926L99.4771 2.06566L101.714 4.30304Z" fill="#E6E6E6"/>
<path d="M47.6232 24.972L49.2861 23.3091L50.4884 24.5114L48.8255 26.1743L50.7049 28.0538L49.4381 29.3206L47.5587 27.4411L45.8911 29.1087L44.6888 27.9064L46.3564 26.2388L44.5552 24.4377L45.822 23.1709L47.6232 24.972Z" fill="#E6E6E6"/>
<path d="M25.3716 53.2167L26.4313 52.1569L27.1975 52.9231L26.1378 53.9829L27.3355 55.1806L26.5282 55.9879L25.3305 54.7902L24.2678 55.8529L23.5016 55.0867L24.5643 54.024L23.4165 52.8761L24.2238 52.0688L25.3716 53.2167Z" fill="#E6E6E6"/>
<path d="M138.619 42.7913L139.678 41.7315L140.445 42.4977L139.385 43.5575L140.583 44.7552L139.775 45.5625L138.578 44.3648L137.515 45.4275L136.749 44.6613L137.811 43.5986L136.664 42.4507L137.471 41.6434L138.619 42.7913Z" fill="#E6E6E6"/>
<path d="M0.999817 118.041C5.06149 103.353 18.3767 70.6195 42.3229 64.5345C66.2691 58.4494 77.6418 64.8842 79.9375 67.9443" stroke="#CCCCCC" stroke-width="1.8018"/>
</svg>
