<svg width="16" height="12" viewBox="0 0 16 12" fill="none" xmlns="http://www.w3.org/2000/svg">
<path d="M0.788086 6C1.41475 2.58667 4.40609 0 8.00075 0C11.5954 0 14.5861 2.58667 15.2134 6C14.5868 9.41333 11.5954 12 8.00075 12C4.40609 12 1.41542 9.41333 0.788086 6ZM8.00075 9.33333C8.88481 9.33333 9.73265 8.98214 10.3578 8.35702C10.9829 7.7319 11.3341 6.88406 11.3341 6C11.3341 5.11595 10.9829 4.2681 10.3578 3.64298C9.73265 3.01786 8.88481 2.66667 8.00075 2.66667C7.1167 2.66667 6.26885 3.01786 5.64373 3.64298C5.01861 4.2681 4.66742 5.11595 4.66742 6C4.66742 6.88406 5.01861 7.7319 5.64373 8.35702C6.26885 8.98214 7.1167 9.33333 8.00075 9.33333ZM8.00075 8C7.47032 8 6.96161 7.78929 6.58654 7.41421C6.21147 7.03914 6.00075 6.53043 6.00075 6C6.00075 5.46957 6.21147 4.96086 6.58654 4.58579C6.96161 4.21071 7.47032 4 8.00075 4C8.53119 4 9.03989 4.21071 9.41497 4.58579C9.79004 4.96086 10.0008 5.46957 10.0008 6C10.0008 6.53043 9.79004 7.03914 9.41497 7.41421C9.03989 7.78929 8.53119 8 8.00075 8Z" fill="#08A6B3"/>
</svg>
