<svg width="62" height="62" viewBox="0 0 62 62" fill="none" xmlns="http://www.w3.org/2000/svg">
<path d="M29 30.9998C29 29.8958 29.896 28.9998 31 28.9998C32.104 28.9998 33 29.8958 33 30.9998C33 32.1038 32.104 32.9998 31 32.9998C29.896 32.9998 29 32.1058 29 30.9998ZM51 60.2798H1.72003V0.999785H0.280029V60.9998C0.280029 61.3978 0.602029 61.7198 1.00003 61.7198H51V60.2798ZM61.72 0.999785C61.72 0.601785 61.398 0.279785 61 0.279785H11V1.71979H60.28V60.9998H61.722L61.72 0.999785ZM51.72 30.9998C51.72 19.5758 42.426 10.2798 31 10.2798C19.576 10.2798 10.28 19.5758 10.28 30.9998C10.28 42.4258 19.574 51.7198 31 51.7198C42.426 51.7198 51.72 42.4258 51.72 30.9998ZM50.28 30.9998C50.28 41.6298 41.632 50.2798 31 50.2798C20.368 50.2798 11.72 41.6298 11.72 30.9998C11.72 20.3698 20.37 11.7198 31 11.7198C41.63 11.7198 50.28 20.3698 50.28 30.9998ZM41.72 30.9998C41.72 25.0878 36.91 20.2798 31 20.2798C25.088 20.2798 20.28 25.0878 20.28 30.9998C20.28 36.9098 25.088 41.7198 31 41.7198C36.91 41.7198 41.72 36.9098 41.72 30.9998ZM40.28 30.9998C40.28 36.1178 36.118 40.2798 31 40.2798C25.882 40.2798 21.72 36.1178 21.72 30.9998C21.72 25.8818 25.884 21.7198 31 21.7198C36.116 21.7198 40.28 25.8818 40.28 30.9998Z" fill="black"/>
</svg>
