<svg width="14" height="16" viewBox="0 0 14 16" fill="none" xmlns="http://www.w3.org/2000/svg">
<path d="M6.66739 9.3745V14.6665H0.667389C0.667318 13.9098 0.828276 13.1617 1.13957 12.472C1.45086 11.7823 1.90536 11.1667 2.47287 10.6662C3.04038 10.1656 3.70791 9.79158 4.4311 9.56888C5.1543 9.34617 5.91661 9.27992 6.66739 9.3745ZM6.00072 8.6665C3.79072 8.6665 2.00072 6.8765 2.00072 4.6665C2.00072 2.4565 3.79072 0.666504 6.00072 0.666504C8.21072 0.666504 10.0007 2.4565 10.0007 4.6665C10.0007 6.8765 8.21072 8.6665 6.00072 8.6665ZM9.86272 13.2758L12.2194 10.9192L13.1627 11.8618L9.86272 15.1618L7.50539 12.8045L8.44872 11.8618L9.86206 13.2758H9.86272Z" fill="#0680F1"/>
</svg>
