<svg width="54" height="54" viewBox="0 0 54 54" fill="none" xmlns="http://www.w3.org/2000/svg">
<path d="M26.9999 24.3335C30.5361 24.3335 33.9275 25.7383 36.428 28.2387C38.9285 30.7392 40.3332 34.1306 40.3332 37.6668V53.6668H13.6666V37.6668C13.6666 34.1306 15.0713 30.7392 17.5718 28.2387C20.0723 25.7383 23.4637 24.3335 26.9999 24.3335ZM9.10125 32.3495C8.67687 33.7809 8.42618 35.2582 8.35458 36.7495L8.33325 37.6668V53.6668H0.333252V41.6668C0.332727 39.367 1.18133 37.148 2.71628 35.4354C4.25123 33.7228 6.36445 32.6372 8.65058 32.3868L9.10392 32.3495H9.10125ZM44.8986 32.3495C47.2717 32.4941 49.5002 33.5387 51.1295 35.2701C52.7588 37.0015 53.6662 39.2893 53.6666 41.6668V53.6668H45.6666V37.6668C45.6666 35.8188 45.3999 34.0348 44.8986 32.3495ZM9.66658 16.3335C11.4347 16.3335 13.1304 17.0359 14.3806 18.2861C15.6309 19.5364 16.3333 21.2321 16.3333 23.0002C16.3333 24.7683 15.6309 26.464 14.3806 27.7142C13.1304 28.9644 11.4347 29.6668 9.66658 29.6668C7.89847 29.6668 6.20278 28.9644 4.95254 27.7142C3.7023 26.464 2.99992 24.7683 2.99992 23.0002C2.99992 21.2321 3.7023 19.5364 4.95254 18.2861C6.20278 17.0359 7.89847 16.3335 9.66658 16.3335ZM44.3332 16.3335C46.1014 16.3335 47.7971 17.0359 49.0473 18.2861C50.2975 19.5364 50.9999 21.2321 50.9999 23.0002C50.9999 24.7683 50.2975 26.464 49.0473 27.7142C47.7971 28.9644 46.1014 29.6668 44.3332 29.6668C42.5651 29.6668 40.8694 28.9644 39.6192 27.7142C38.369 26.464 37.6666 24.7683 37.6666 23.0002C37.6666 21.2321 38.369 19.5364 39.6192 18.2861C40.8694 17.0359 42.5651 16.3335 44.3332 16.3335ZM26.9999 0.333496C29.8289 0.333496 32.542 1.4573 34.5424 3.45769C36.5428 5.45808 37.6666 8.17119 37.6666 11.0002C37.6666 13.8291 36.5428 16.5422 34.5424 18.5426C32.542 20.543 29.8289 21.6668 26.9999 21.6668C24.1709 21.6668 21.4578 20.543 19.4574 18.5426C17.4571 16.5422 16.3333 13.8291 16.3333 11.0002C16.3333 8.17119 17.4571 5.45808 19.4574 3.45769C21.4578 1.4573 24.1709 0.333496 26.9999 0.333496Z" fill="#DE3E1B"/>
</svg>
