<svg width="64" height="64" viewBox="0 0 64 64" fill="none" xmlns="http://www.w3.org/2000/svg">
<path d="M32.0001 0.015625C27.9981 0.015625 23.9959 1.53918 20.9485 4.5863C14.8541 10.6805 14.8541 20.595 20.9485 26.6892C21.3791 27.1203 22.0777 27.1205 22.5085 26.6899C22.9393 26.2593 22.9397 25.5607 22.5091 25.1299C22.5089 25.1297 22.5087 25.1295 22.5085 25.1293C17.2571 19.8779 17.2571 11.3972 22.5085 6.14581C27.7599 0.894423 36.2401 0.894423 41.4915 6.14581C46.7429 11.3972 46.7429 19.8779 41.4915 25.1293C41.0607 25.5601 41.0607 26.2584 41.4915 26.6892C41.9223 27.12 42.6207 27.12 43.0515 26.6892C49.1459 20.595 49.1459 10.6805 43.0515 4.5863C40.0046 1.53918 36.0023 0.015625 32.0001 0.015625ZM32.0001 3.88926C28.9894 3.88926 25.9785 5.03474 23.6877 7.32548C19.1062 11.907 19.1062 19.3686 23.6877 23.9501C24.1134 24.3857 24.8118 24.3939 25.2474 23.9681C25.6831 23.5424 25.6913 22.8441 25.2655 22.4084C25.2596 22.4022 25.2534 22.3961 25.2472 22.3901C21.5086 18.6515 21.5086 12.6236 25.2472 8.88499C28.9859 5.14635 35.0141 5.14635 38.7528 8.88499C42.4914 12.6236 42.4914 18.6515 38.7528 22.3901C38.3169 22.8158 38.3088 23.514 38.7342 23.9498C39.16 24.3857 39.8581 24.3939 40.294 23.9684C40.3002 23.9624 40.3063 23.9562 40.3123 23.9501C44.8938 19.3686 44.8938 11.907 40.3123 7.32548C38.0218 5.03474 35.0108 3.88926 32.0001 3.88926ZM32.0001 8.72441C28.1951 8.72441 25.0866 11.8328 25.0866 15.6379C25.0866 19.0677 27.6123 21.9302 30.8972 22.4618V31.9662H18.4425C15.7046 31.9662 13.466 34.2047 13.466 36.9428C13.466 39.6808 15.7044 41.9195 18.4425 41.9195H30.8972C30.8972 41.9217 30.8972 41.9242 30.8972 41.9264V52.9554C30.8965 52.9925 30.8979 53.0293 30.9012 53.0662C28.7452 53.5069 27.0366 55.2162 26.5963 57.3721C26.5595 57.3686 26.5226 57.3668 26.4856 57.3671H1.11868C0.509656 57.3585 0.00871496 57.8453 0.00011228 58.4543C-0.00849041 59.0633 0.478333 59.5643 1.08736 59.5729C1.09773 59.5731 1.10809 59.5731 1.11846 59.5729H26.4854C26.5224 59.5735 26.5592 59.5722 26.5961 59.5689C27.1094 62.0798 29.3434 63.9845 31.9999 63.9845C34.6568 63.9845 36.8911 62.0791 37.4037 59.5678C37.4405 59.5713 37.4774 59.5731 37.5144 59.5729H62.8813C63.4904 59.5815 63.9913 59.0947 63.9999 58.4856C64.0085 57.8766 63.5217 57.3757 62.9127 57.3671C62.9023 57.3668 62.8919 57.3668 62.8815 57.3671H37.5147C37.4776 57.3664 37.4408 57.3677 37.4039 57.371C36.9632 55.2151 35.2539 53.5065 33.0979 53.0662C33.1015 53.0293 33.1032 52.9925 33.103 52.9554V41.9264C33.1028 41.9242 33.1028 41.9217 33.1026 41.9195H45.5577C48.2956 41.9195 50.5343 39.6806 50.5343 36.9428C50.5343 34.2049 48.2958 31.9662 45.5577 31.9662H33.103V22.4618C36.3877 21.9302 38.9136 19.0677 38.9136 15.6379C38.9136 11.8326 35.8051 8.72441 32.0001 8.72441ZM32.0001 10.9302C34.6131 10.9302 36.7078 13.0249 36.7078 15.6379C36.7078 18.2509 34.6131 20.3455 32.0001 20.3455C29.3871 20.3455 27.2925 18.2509 27.2925 15.6379C27.2925 13.0249 29.3871 10.9302 32.0001 10.9302ZM32.0001 12.1809C30.0976 12.1809 28.5436 13.7354 28.5436 15.6379C28.5392 15.9425 28.7827 16.1929 29.0873 16.1971C29.392 16.2015 29.6423 15.9579 29.6465 15.6533C29.6465 15.648 29.6465 15.643 29.6465 15.6377C29.6465 14.3312 30.6936 13.2836 32.0001 13.2836C32.3047 13.288 32.5551 13.0445 32.5593 12.7399C32.5635 12.4353 32.3202 12.1849 32.0156 12.1807C32.0105 12.1807 32.0054 12.1807 32.0001 12.1809ZM18.4425 34.1718H45.5577C47.1117 34.1718 48.3284 35.3883 48.3284 36.9425C48.3284 38.4968 47.1119 39.7135 45.5577 39.7135H18.4425C16.8885 39.7135 15.6718 38.4965 15.6718 36.9425C15.6718 35.3885 16.8885 34.1718 18.4425 34.1718ZM18.4425 35.8394C17.8335 35.8308 17.3325 36.3176 17.3239 36.9267C17.3153 37.5357 17.8022 38.0366 18.4112 38.0452C18.4215 38.0454 18.4319 38.0454 18.4423 38.0452H37.8105C38.4195 38.0538 38.9204 37.567 38.929 36.958C38.9376 36.349 38.4508 35.848 37.8418 35.8394C37.8314 35.8392 37.821 35.8392 37.8107 35.8394H18.4425ZM41.6843 35.9744C41.1494 35.9744 40.716 36.4078 40.7157 36.9428V36.943C40.7157 37.4779 41.1492 37.9113 41.6841 37.9116H41.6843C42.2192 37.9116 42.6527 37.4781 42.6529 36.9432V36.943C42.6527 36.4081 42.2192 35.9744 41.6843 35.9744ZM45.5577 35.9744C45.0228 35.9744 44.5894 36.4078 44.5891 36.9428V36.943C44.5891 37.4779 45.0226 37.9113 45.5575 37.9116H45.5577C46.0926 37.9116 46.5261 37.4781 46.5263 36.9432V36.943C46.5263 36.4081 46.0929 35.9744 45.5577 35.9744C45.5579 35.9744 45.5577 35.9744 45.5577 35.9744ZM32.0001 55.161C33.8404 55.161 35.3088 56.6294 35.3088 58.4698C35.3088 60.3101 33.8404 61.7785 32.0001 61.7785C30.1598 61.7785 28.6914 60.3101 28.6914 58.4698C28.6914 56.6294 30.1598 55.161 32.0001 55.161ZM32.0001 55.7125C30.4838 55.7125 29.2428 56.9535 29.2428 58.4698C29.2384 58.7744 29.482 59.0247 29.7866 59.0289C30.0912 59.0333 30.3416 58.7898 30.3457 58.4852C30.3457 58.4799 30.3457 58.4748 30.3457 58.4695C30.3457 57.5493 31.0798 56.8152 32.0001 56.8152C32.3047 56.8196 32.5551 56.5761 32.5593 56.2714C32.5637 55.9668 32.3202 55.7165 32.0156 55.7123C32.0105 55.7125 32.0054 55.7125 32.0001 55.7125Z" fill="#26BCA5"/>
</svg>
